<?xml version="1.0" standalone="no"?>
<!DOCTYPE svg PUBLIC "-//W3C//DTD SVG 20010904//EN"
 "http://www.w3.org/TR/2001/REC-SVG-20010904/DTD/svg10.dtd">
<svg version="1.0" xmlns="http://www.w3.org/2000/svg"
 width="1040.000000pt" height="760.000000pt" viewBox="0 0 1040.000000 760.000000"
 preserveAspectRatio="xMidYMid meet">

<g transform="translate(0.000000,760.000000) scale(0.100000,-0.100000)"
fill="#000000" stroke="none">
<path d="M5015 7269 c-4 -5 -18 -9 -33 -9 -15 0 -56 -8 -92 -18 -36 -11 -71
-17 -79 -14 -9 3 -11 0 -6 -8 6 -10 3 -12 -10 -7 -9 4 -23 2 -31 -3 -7 -6 -18
-10 -26 -9 -18 4 -107 -26 -205 -67 -17 -8 -38 -14 -46 -14 -9 0 -19 -5 -22
-10 -4 -6 -11 -8 -16 -5 -5 4 -29 -10 -53 -29 -23 -20 -48 -36 -53 -36 -6 0
-22 -11 -36 -24 -15 -14 -35 -29 -44 -34 -35 -20 -195 -171 -263 -248 -69 -79
-164 -255 -193 -359 -39 -136 -47 -179 -63 -315 -8 -69 -17 -136 -19 -150 -2
-14 -8 -51 -13 -83 -5 -32 -8 -104 -6 -160 3 -116 -4 -187 -18 -187 -5 0 -21
9 -35 20 -39 31 -76 26 -111 -14 -61 -69 -82 -208 -87 -565 -4 -280 4 -367 40
-468 24 -66 57 -106 102 -123 27 -11 69 -67 77 -105 5 -22 4 -26 -4 -15 -10
16 -10 16 -14 -45 -1 -11 4 -30 12 -43 10 -18 11 -26 1 -38 -9 -11 -9 -21 0
-40 15 -35 14 -44 -6 -37 -17 6 -17 5 0 -14 9 -11 17 -25 17 -31 0 -7 5 -21
12 -32 7 -10 8 -23 4 -27 -5 -4 -11 -2 -13 5 -3 6 -9 12 -14 12 -6 0 -5 -8 1
-20 6 -11 7 -20 3 -20 -4 0 -2 -4 6 -9 10 -6 11 -17 6 -37 -5 -16 -7 -38 -5
-49 6 -45 6 -61 -2 -82 -5 -17 -4 -23 7 -23 8 0 16 -6 16 -12 1 -7 2 -19 3
-26 0 -7 7 -17 15 -21 10 -7 15 -31 16 -80 1 -38 -1 -68 -5 -66 -3 2 -7 -5 -7
-16 -1 -11 2 -17 7 -14 6 3 7 -1 4 -9 -3 -9 -1 -16 6 -16 11 0 7 -61 -6 -82
-3 -5 0 -15 6 -23 9 -11 9 -15 1 -15 -6 0 -11 -16 -11 -36 0 -31 3 -36 20 -31
10 3 21 0 23 -7 2 -6 8 -8 12 -4 4 4 2 14 -5 23 -7 8 -8 15 -2 15 17 0 29 -24
27 -57 -2 -22 1 -30 11 -26 7 2 21 0 31 -6 10 -6 13 -11 6 -11 -7 0 -10 -6 -7
-14 3 -8 12 -12 20 -9 16 6 19 -13 3 -22 -6 -5 -4 -11 7 -19 9 -7 18 -22 19
-32 4 -33 17 -54 34 -54 17 0 51 -33 51 -49 0 -5 8 -12 17 -15 12 -5 14 -9 5
-18 -16 -16 -15 -28 3 -28 8 0 15 5 15 12 0 6 3 8 7 5 3 -4 -2 -16 -12 -27
-10 -11 -15 -23 -12 -27 4 -3 7 0 7 8 1 10 5 8 15 -5 11 -15 15 -16 16 -5 2
29 19 -48 19 -86 0 -22 4 -83 9 -135 l9 -95 -31 -32 c-37 -39 -151 -118 -201
-138 -37 -16 -86 -15 -180 3 -61 12 -116 -7 -116 -38 0 -11 15 -52 34 -90 19
-37 37 -79 41 -92 4 -13 38 -78 76 -144 38 -67 69 -124 69 -128 0 -28 258
-368 330 -434 36 -34 138 -106 185 -132 22 -12 64 -35 92 -52 30 -16 58 -26
65 -22 7 4 10 4 6 -1 -9 -9 217 -125 242 -125 9 0 20 -4 26 -9 5 -6 36 -19 69
-30 33 -11 92 -31 130 -46 86 -33 210 -69 290 -85 33 -6 87 -18 120 -25 47
-11 87 -11 179 -4 65 5 127 14 137 19 10 6 27 10 38 10 12 0 40 9 64 19 23 11
53 23 67 26 36 10 371 174 397 195 16 13 19 20 10 29 -8 8 -8 11 0 11 7 0 14
-4 18 -10 9 -15 37 1 30 18 -4 11 -2 12 8 4 10 -8 41 15 132 98 150 136 251
257 306 367 13 27 26 50 29 53 3 3 15 23 28 45 26 46 36 66 127 280 26 61 55
126 65 145 10 19 23 53 29 75 7 22 16 49 21 60 24 55 52 168 57 233 6 75 23
82 23 9 0 -27 4 -37 13 -34 6 2 11 10 10 16 -2 6 3 10 10 8 6 -1 11 4 10 11
-2 6 2 12 7 12 6 0 13 -13 16 -30 4 -16 11 -27 16 -24 21 13 -21 -205 -63
-327 -12 -35 -37 -97 -55 -137 -19 -41 -34 -76 -34 -79 0 -15 -126 -284 -151
-321 -16 -24 -36 -56 -43 -71 -41 -79 -260 -325 -370 -416 -165 -136 -354
-243 -555 -315 -295 -105 -489 -117 -816 -50 -100 21 -392 120 -500 170 -38
18 -92 42 -120 55 -84 37 -276 148 -345 199 -129 95 -262 236 -358 379 -50 76
-162 264 -162 273 0 2 -11 22 -25 44 -29 46 -111 226 -121 266 -6 23 -4 26 10
21 9 -4 16 -2 16 3 0 6 -10 10 -22 10 -25 0 -108 -76 -108 -98 0 -40 213 -434
291 -539 22 -29 39 -55 39 -58 0 -11 162 -200 208 -243 150 -138 286 -231 483
-329 209 -104 320 -148 529 -207 215 -60 282 -69 515 -70 196 0 218 1 330 27
179 42 259 71 410 148 236 120 405 251 594 460 150 167 218 269 322 489 123
258 213 527 225 672 l6 73 -78 28 c-49 17 -80 23 -83 16 -2 -6 -8 -4 -15 5 -6
9 -38 29 -71 44 l-59 29 -69 -28 c-47 -19 -78 -27 -96 -23 -27 7 -164 59 -193
75 -10 5 -26 9 -35 9 -10 0 -31 9 -48 21 -16 11 -41 25 -54 30 -18 7 -21 13
-13 21 7 7 12 22 12 34 0 12 10 34 22 50 13 15 17 25 10 20 -7 -4 -12 -2 -12
7 0 26 14 28 32 5 10 -13 18 -18 18 -11 0 6 -5 15 -10 18 -7 4 -1 16 15 31 28
26 48 24 38 -4 -4 -11 1 -9 16 7 l22 25 -21 11 c-21 11 -21 11 -1 34 13 15 21
18 26 10 4 -6 19 -9 36 -5 16 3 29 1 29 -4 0 -6 4 -10 8 -10 5 0 9 7 9 15 0 8
-4 12 -8 9 -4 -2 -10 0 -14 6 -4 6 -11 8 -16 4 -5 -3 -8 0 -7 8 2 8 -4 12 -14
10 -18 -3 -24 9 -11 21 3 4 16 -2 28 -13 l22 -21 5 25 c3 14 1 23 -4 20 -5 -3
-7 11 -4 33 8 63 17 85 33 79 11 -5 13 -1 8 15 -5 14 -3 19 3 15 7 -4 9 7 8
29 -2 19 1 35 5 35 5 0 9 -10 10 -22 l0 -23 9 22 c11 27 -3 126 -14 101 -5
-10 -12 -15 -18 -12 -5 3 0 13 12 21 17 12 19 18 9 29 -10 12 -9 13 4 9 8 -4
18 -16 21 -28 3 -12 8 -18 11 -15 4 3 2 15 -4 26 -13 25 -14 92 -2 111 6 9 6
22 0 33 -6 11 -6 18 0 18 5 0 11 -5 13 -10 2 -6 9 -1 15 9 10 16 10 23 -3 36
-14 13 -14 15 3 15 16 1 16 2 2 13 -16 12 -15 37 2 37 6 0 7 -6 3 -12 -4 -7
-4 -10 1 -6 4 4 14 3 22 -3 19 -16 16 -1 -6 27 -10 13 -21 20 -25 17 -3 -3 -6
-1 -6 6 0 8 -8 10 -22 6 -23 -7 -23 -7 -3 8 15 11 22 12 27 4 4 -7 8 5 8 25 0
20 -4 40 -10 43 -18 11 -11 27 10 22 11 -3 20 -1 20 5 0 5 -9 12 -20 15 -11 3
-17 9 -14 14 3 5 10 7 15 4 5 -3 6 1 3 10 -4 8 -1 21 4 28 8 9 7 21 -4 42 -11
21 -11 30 -3 35 8 6 8 9 0 14 -18 11 -13 26 6 19 10 -4 5 6 -13 23 -23 23 -28
35 -24 54 4 14 2 31 -3 38 -6 8 -6 12 2 12 6 0 11 -4 11 -10 0 -5 4 -10 9 -10
6 0 9 9 8 19 0 11 -5 17 -9 15 -4 -3 -8 2 -8 10 0 9 5 16 11 16 7 0 8 7 4 18
-4 9 -8 23 -8 30 0 6 -4 12 -8 12 -17 0 -1 31 38 73 25 27 44 59 47 79 18 103
26 168 26 204 0 23 7 59 16 80 12 28 15 54 10 94 -19 170 -21 202 -14 206 21
13 -11 301 -43 389 -35 97 -58 117 -125 110 l-51 -5 -11 68 c-6 37 -14 100
-17 140 -4 40 -10 85 -15 100 -9 30 -19 81 -50 254 -38 205 -100 391 -161 480
-21 32 -39 62 -39 66 0 18 -382 412 -399 412 -5 0 -14 6 -20 14 -7 8 -24 17
-38 21 -15 3 -40 17 -55 31 -42 34 -139 78 -243 110 -49 14 -110 34 -135 42
-25 9 -54 17 -65 19 -11 2 -27 6 -35 10 -8 4 -22 7 -30 8 -8 1 -42 5 -75 10
-92 11 -314 15 -320 4z m-455 -1514 c-7 -8 -20 -15 -28 -15 -13 0 -12 3 4 15
25 19 40 19 24 0z m780 -153 c0 -3 -7 3 -15 14 -8 10 -14 26 -15 34 0 8 7 2
15 -14 8 -15 15 -31 15 -34z m-130 32 c0 -2 -7 -4 -15 -4 -8 0 -15 4 -15 10 0
5 7 7 15 4 8 -4 15 -8 15 -10z m-43 -8 c0 -8 -6 -12 -15 -9 -11 5 -11 7 0 14
7 5 13 9 14 9 0 0 1 -6 1 -14z m233 -22 c0 -2 -9 0 -20 6 -11 6 -20 13 -20 16
0 2 9 0 20 -6 11 -6 20 -13 20 -16z m-35 -14 c-3 -5 -16 -10 -28 -9 -20 1 -20
2 3 9 14 4 26 8 28 9 2 1 0 -3 -3 -9z m-113 -22 c-7 -7 -12 -8 -12 -2 0 14 12
26 19 19 2 -3 -1 -11 -7 -17z m58 2 c8 -5 11 -10 5 -10 -5 0 -17 5 -25 10 -8
5 -10 10 -5 10 6 0 17 -5 25 -10z m-532 -261 c56 -28 61 -33 45 -44 -10 -7
-25 -13 -33 -14 -8 -1 -33 -4 -55 -7 l-40 -6 0 51 c0 28 4 51 10 51 5 0 38
-14 73 -31z m1037 -24 l0 -45 -38 0 c-64 0 -59 47 8 76 16 7 30 13 30 14 0 0
0 -20 0 -45z m-1257 12 c2 -12 -3 -17 -17 -17 -12 0 -21 6 -21 13 0 31 32 34
38 4z m105 17 c9 -10 -4 -34 -18 -34 -17 0 -28 17 -20 30 7 11 28 13 38 4z
m-200 -26 c2 -13 8 -31 12 -41 5 -12 3 -16 -6 -13 -8 2 -27 7 -42 10 -24 6
-27 10 -21 29 13 41 49 50 57 15z m1525 -1 c2 -12 -3 -17 -17 -17 -12 0 -21 6
-21 13 0 31 32 34 38 4z m121 -31 c-2 -2 -18 -7 -36 -10 -29 -7 -31 -5 -26 16
11 52 13 53 40 25 15 -14 25 -28 22 -31z m-224 34 c3 -5 4 -14 0 -20 -8 -13
-35 -1 -35 16 0 16 26 19 35 4z m-165 -36 c0 -8 -5 -12 -10 -9 -6 4 -8 11 -5
16 9 14 15 11 15 -7z m309 -87 c8 -10 7 -14 -4 -14 -8 0 -15 6 -15 14 0 7 2
13 4 13 2 0 9 -6 15 -13z m-2458 -214 c12 -14 12 -16 0 -8 -11 6 -13 4 -8 -9
4 -10 3 -15 -3 -11 -6 3 -10 1 -10 -4 0 -6 -4 -11 -10 -11 -16 0 -12 30 5 36
8 4 12 10 9 15 -9 15 3 10 17 -8z m2469 -87 c0 -2 -9 -6 -20 -9 -11 -3 -20 -1
-20 4 0 5 9 9 20 9 11 0 20 -2 20 -4z m-60 -46 c0 -5 -5 -10 -11 -10 -5 0 -7
5 -4 10 3 6 8 10 11 10 2 0 4 -4 4 -10z m-667 -59 c4 -1 16 -1 28 -1 16 0 19
-5 15 -22 l-6 -23 11 23 c12 22 29 30 29 12 0 -5 11 -13 26 -16 18 -5 29 -1
40 12 9 11 13 13 9 6 -4 -7 -2 -18 4 -25 5 -7 6 -19 2 -26 -6 -9 -11 -10 -15
-2 -4 6 -2 11 4 11 6 0 8 5 4 11 -10 17 -25 -12 -18 -35 5 -14 2 -18 -10 -13
-8 3 -22 0 -30 -8 -8 -8 -19 -15 -24 -15 -6 0 -13 -6 -15 -12 -4 -9 -8 -9 -14
-3 -12 15 -84 13 -78 -2 7 -21 -13 -15 -25 6 -8 16 -6 20 8 24 16 4 16 5 -1 6
-10 0 -20 -6 -23 -14 -5 -11 -11 -12 -25 -5 -10 6 -22 10 -26 9 -4 -1 -12 0
-18 1 -5 1 -14 3 -20 5 -5 1 -18 3 -27 3 -10 1 -17 5 -17 10 3 19 -2 33 -11
27 -5 -3 -7 -12 -3 -20 3 -8 0 -15 -6 -15 -17 0 -13 19 9 47 12 15 20 20 20
12 0 -8 3 -10 8 -4 4 6 14 10 22 10 8 0 14 5 13 11 -2 13 28 15 43 2 8 -5 14
-3 18 7 4 10 11 13 18 8 25 -15 48 -14 41 3 -5 13 -3 14 13 6 10 -5 22 -10 27
-11z m995 -26 c4 -4 -3 -4 -15 -1 l-22 7 19 -38 c21 -43 21 -42 -10 -48 -13
-3 -28 -10 -33 -17 -6 -10 -8 -10 -5 1 3 12 22 27 46 37 2 1 -6 17 -17 37
l-20 35 25 -3 c14 -1 28 -6 32 -10z m-2057 -28 c-10 -9 -11 -8 -5 6 3 10 9 15
12 12 3 -3 0 -11 -7 -18z m-29 6 c-6 -2 -10 -9 -7 -14 7 -10 -41 -66 -50 -58
-2 3 3 14 13 25 10 10 21 27 25 37 3 9 12 17 19 16 10 0 10 -2 0 -6z m2035
-20 c-2 -1 -14 1 -27 4 -22 6 -22 7 -4 13 15 6 40 -8 31 -17z m-1767 8 c0 -5
-7 -12 -16 -15 -14 -5 -15 -4 -4 9 14 17 20 19 20 6z m547 -6 c-2 -5 -9 -11
-15 -11 -24 -3 -26 -4 -14 -16 17 -17 15 -29 -3 -22 -8 4 -15 1 -15 -5 0 -19
-17 -12 -23 8 -3 15 -1 18 11 14 10 -4 13 -2 8 5 -4 7 -2 12 3 12 6 0 11 6 11
14 0 9 9 14 20 13 11 -1 19 -6 17 -12z m-739 -14 c3 -9 -2 -11 -19 -7 -13 3
-18 3 -11 0 10 -5 9 -10 -4 -25 -12 -14 -14 -23 -7 -30 7 -7 2 -20 -18 -42
-31 -33 -33 -33 -43 1 -5 14 -3 22 4 22 6 0 8 -4 5 -10 -3 -5 1 -10 10 -10 12
0 15 5 11 16 -5 12 -2 15 10 10 13 -5 14 -4 6 7 -16 19 -54 14 -62 -8 -5 -14
-9 -15 -14 -6 -9 14 9 36 64 75 38 26 61 29 68 7z m2026 3 c3 -8 2 -12 -4 -9
-6 3 -10 10 -10 16 0 14 7 11 14 -7z m-1395 -36 c1 6 5 12 11 12 5 0 7 -7 4
-15 -4 -8 -1 -15 5 -15 6 0 11 -4 11 -9 0 -6 -9 -9 -21 -8 -25 2 -43 32 -33
55 6 14 8 13 14 -8 5 -14 8 -19 9 -12z m-439 2 c0 -5 -5 -10 -11 -10 -5 0 -7
5 -4 10 3 6 8 10 11 10 2 0 4 -4 4 -10z m-30 -21 c0 -6 -4 -7 -10 -4 -5 3 -10
11 -10 16 0 6 5 7 10 4 6 -3 10 -11 10 -16z m1855 -7 c-8 -8 -25 10 -19 20 4
6 9 5 15 -3 4 -7 6 -15 4 -17z m-2031 10 c3 -5 -1 -9 -9 -9 -8 0 -15 4 -15 9
0 4 4 8 9 8 6 0 12 -4 15 -8z m961 -30 c0 -18 -20 -15 -23 4 -3 10 1 15 10 12
7 -3 13 -10 13 -16z m1065 4 c0 -2 -7 -6 -15 -10 -8 -3 -15 -1 -15 4 0 6 7 10
15 10 8 0 15 -2 15 -4z m-2126 -40 c-5 -13 13 -26 49 -33 10 -1 16 1 13 5 -2
4 -1 14 4 22 7 11 9 8 7 -10 -3 -29 -14 -49 -41 -70 -19 -15 -19 -14 -2 11 16
26 16 27 -9 33 -14 4 -25 11 -25 17 0 6 -4 7 -10 4 -12 -7 -12 -3 -4 19 3 9
10 16 15 16 4 0 6 -6 3 -14z m2187 -33 c13 -16 12 -17 -3 -4 -10 7 -18 15 -18
17 0 8 8 3 21 -13z m-16 -23 c-3 -5 -11 -10 -16 -10 -6 0 -7 5 -4 10 3 6 11
10 16 10 6 0 7 -4 4 -10z m-1775 -10 c8 -5 11 -10 5 -10 -5 0 -17 5 -25 10 -8
5 -10 10 -5 10 6 0 17 -5 25 -10z m60 -4 c0 -8 -9 -18 -21 -21 -14 -5 -18 -12
-14 -23 5 -14 4 -14 -6 -5 -10 10 -8 18 12 37 30 29 29 29 29 12z m1085 -6 c3
-5 1 -10 -4 -10 -6 0 -11 5 -11 10 0 6 2 10 4 10 3 0 8 -4 11 -10z m170 1 c3
-5 1 -12 -5 -16 -5 -3 -10 1 -10 9 0 18 6 21 15 7z m-1188 -7 c-3 -3 -12 -4
-19 -1 -8 3 -5 6 6 6 11 1 17 -2 13 -5z m-447 -19 c0 -8 -2 -15 -4 -15 -2 0
-6 7 -10 15 -3 8 -1 15 4 15 6 0 10 -7 10 -15z m430 -15 c8 -16 8 -18 -5 -14
-8 3 -12 11 -8 17 4 6 0 8 -9 5 -8 -4 -21 -2 -29 4 -11 8 -10 9 4 4 9 -3 17
-1 17 5 0 14 18 2 30 -21z m50 26 c0 -3 -4 -8 -10 -11 -5 -3 -10 -1 -10 4 0 6
5 11 10 11 6 0 10 -2 10 -4z m-543 -68 c-3 -8 -6 -5 -6 6 -1 11 2 17 5 13 3
-3 4 -12 1 -19z m1336 -135 c-7 -2 -19 -2 -25 0 -7 3 -2 5 12 5 14 0 19 -2 13
-5z m-463 -23 c-19 -13 -30 -13 -30 0 0 6 10 10 23 10 18 0 19 -2 7 -10z
m-846 -26 c3 -8 2 -12 -4 -9 -6 3 -10 10 -10 16 0 14 7 11 14 -7z m2601 -14
c3 -5 1 -10 -4 -10 -6 0 -11 5 -11 10 0 6 2 10 4 10 3 0 8 -4 11 -10z m-3145
-36 c0 -8 -4 -12 -10 -9 -5 3 -10 10 -10 16 0 5 5 9 10 9 6 0 10 -7 10 -16z
m1350 -20 c0 -2 -12 -4 -26 -4 -14 0 -23 4 -20 9 6 8 46 4 46 -5z m235 -64 c0
-1 69 -2 154 -3 116 -2 155 -5 159 -15 3 -9 8 -10 16 -3 17 14 100 -12 104
-32 2 -10 -12 -20 -45 -32 -26 -10 -65 -23 -86 -31 -20 -8 -48 -14 -60 -14
-13 0 -27 -4 -32 -9 -6 -5 -23 -12 -40 -15 -16 -2 -46 -9 -65 -15 -48 -15 -60
-14 -61 7 -1 16 -2 16 -6 0 -6 -24 -110 -26 -119 -3 -6 14 -8 13 -19 -1 -12
-18 -52 -13 -41 5 3 5 -1 15 -10 22 -12 10 -20 10 -35 1 -15 -10 -26 -8 -56 6
-21 9 -44 24 -51 32 -8 8 -11 9 -7 3 11 -22 -29 -14 -55 10 -31 29 -74 43 -66
21 4 -10 -2 -13 -19 -12 -18 2 -25 8 -25 23 0 18 7 20 63 21 34 0 82 4 107 8
25 4 68 8 95 10 28 2 57 6 65 9 23 9 135 15 135 7z m555 -24 c0 -16 -27 -29
-41 -20 -5 3 -9 -2 -9 -11 0 -12 -7 -15 -27 -13 -44 5 -34 30 17 43 61 17 60
17 60 1z m-1030 -15 c0 -5 -9 -7 -20 -4 -11 3 -20 7 -20 9 0 2 9 4 20 4 11 0
20 -4 20 -9z m765 -171 c-3 -6 1 -7 9 -4 17 7 19 3 10 -20 -3 -8 -13 -13 -22
-10 -15 5 -15 4 1 -6 18 -11 25 -36 7 -25 -5 3 -20 -1 -32 -10 l-23 -17 28 6
c34 8 35 -1 1 -14 -19 -8 -31 -7 -42 2 -12 10 -14 10 -8 1 4 -7 5 -13 1 -13
-3 0 -10 10 -15 23 -7 17 -9 18 -9 5 -1 -10 -5 -18 -11 -18 -5 0 -9 5 -7 11 1
6 -10 12 -25 13 -16 1 -28 -2 -28 -6 0 -4 8 -8 18 -8 14 0 15 -2 2 -10 -11 -7
-18 -5 -26 5 -14 18 -49 21 -38 3 5 -9 2 -9 -9 1 -12 9 -17 10 -17 2 0 -7 -5
-9 -11 -5 -6 3 -15 0 -20 -7 -6 -10 -9 -10 -9 -2 0 8 -11 11 -32 9 -18 -2 -41
0 -50 5 -10 6 -19 5 -23 -1 -3 -5 -11 -10 -16 -10 -6 0 -8 4 -5 9 3 5 -1 11
-9 14 -9 4 -12 1 -9 -7 7 -17 -55 -9 -77 11 -9 8 -27 15 -40 16 -13 1 -33 9
-43 19 -10 9 -23 15 -28 12 -4 -3 -8 2 -8 11 0 16 9 14 39 -9 7 -6 25 -11 40
-13 26 -2 26 -2 -4 13 l-30 14 39 -5 c22 -3 45 -10 53 -16 9 -9 13 -8 13 0 0
7 5 9 11 6 6 -4 40 -8 76 -10 36 -2 70 -8 76 -14 7 -7 14 -7 24 0 9 8 13 8 13
0 0 -6 5 -11 10 -11 6 0 10 7 10 16 0 13 8 15 40 11 29 -3 40 -1 40 9 0 8 9
11 25 8 14 -2 25 0 25 5 0 5 16 8 35 7 19 -1 35 2 35 6 0 5 12 8 26 8 14 0 22
-4 19 -10z m-658 -6 c-3 -3 -12 -4 -19 -1 -8 3 -5 6 6 6 11 1 17 -2 13 -5z
m177 -103 c-2 -2 -10 2 -19 9 -8 7 -15 8 -15 3 0 -6 -12 -8 -26 -5 -17 3 -22
7 -13 12 7 5 19 6 27 2 11 -4 13 -2 7 8 -5 7 3 5 17 -6 14 -10 24 -21 22 -23z
m-1347 -133 c-3 -8 -6 -5 -6 6 -1 11 2 17 5 13 3 -3 4 -12 1 -19z m1198 -28
c3 -5 1 -10 -4 -10 -6 0 -11 5 -11 10 0 6 2 10 4 10 3 0 8 -4 11 -10z m751
-47 c-7 -7 -26 7 -26 19 0 6 6 6 15 -2 9 -7 13 -15 11 -17z m-773 2 c-3 -9 -8
-14 -10 -11 -3 3 -2 9 2 15 9 16 15 13 8 -4z m108 -18 c-6 -8 -7 -18 -3 -22 4
-5 1 -5 -6 -1 -10 6 -10 11 -1 22 6 8 14 14 16 14 3 0 0 -6 -6 -13z m69 -11
c0 -2 -7 -6 -15 -10 -8 -3 -15 -1 -15 4 0 6 7 10 15 10 8 0 15 -2 15 -4z
m-100 -14 c0 -5 -6 -17 -14 -27 -13 -18 -14 -18 -9 8 5 24 23 39 23 19z m-40
-22 c0 -19 -11 -26 -23 -14 -8 8 3 34 14 34 5 0 9 -9 9 -20z m80 -10 c0 -5 -8
-6 -17 -3 -16 6 -17 5 -3 -13 14 -17 13 -18 -1 -7 -9 7 -20 9 -25 5 -4 -4 -2
1 5 11 14 18 41 23 41 7z m57 -6 c-3 -3 -12 -4 -19 -1 -8 3 -5 6 6 6 11 1 17
-2 13 -5z m543 -14 c-13 -9 -12 -12 4 -25 11 -8 17 -18 13 -21 -3 -4 -13 1
-22 10 -9 9 -23 16 -31 16 -8 0 -14 4 -14 10 0 5 6 7 14 4 8 -3 17 -1 21 5 3
6 12 11 18 11 7 0 6 -4 -3 -10z m44 -22 c-3 -4 -11 -5 -19 -2 -11 5 -12 9 -2
19 12 13 31 -1 21 -17z m-710 -3 c3 -8 1 -15 -4 -15 -6 0 -10 7 -10 15 0 8 2
15 4 15 2 0 6 -7 10 -15z m83 0 c-1 0 -11 -8 -22 -17 -20 -16 -21 -16 -32 0
-9 16 -7 18 23 18 18 0 32 0 31 -1z m540 -12 c-9 -2 -15 -9 -12 -14 4 -5 1 -9
-4 -9 -12 0 -14 13 -4 23 3 4 13 6 22 6 13 -1 12 -2 -2 -6z m-572 -43 c3 -6
-1 -7 -9 -4 -18 7 -21 14 -7 14 6 0 13 -4 16 -10z m1750 -30 c3 -5 1 -10 -4
-10 -6 0 -11 5 -11 10 0 6 2 10 4 10 3 0 8 -4 11 -10z m-2995 -100 c0 -5 -5
-10 -11 -10 -5 0 -7 5 -4 10 3 6 8 10 11 10 2 0 4 -4 4 -10z m175 -230 c3 -5
1 -10 -4 -10 -6 0 -11 5 -11 10 0 6 2 10 4 10 3 0 8 -4 11 -10z m2630 -392
c13 -27 22 -48 18 -48 -3 0 0 -6 6 -13 6 -8 13 -24 15 -38 3 -13 5 -25 5 -26
1 -2 1 -6 2 -10 0 -5 5 -14 11 -20 6 -7 7 -13 3 -13 -4 0 -2 -7 5 -15 10 -12
10 -15 0 -15 -10 0 -10 -3 0 -15 7 -8 9 -15 5 -15 -4 0 -3 -6 2 -12 12 -16 12
-13 17 -168 2 -69 -1 -136 -6 -149 -5 -13 -10 -43 -13 -68 -2 -24 -10 -56 -18
-72 -8 -15 -22 -59 -32 -97 -10 -38 -22 -71 -26 -74 -3 -3 -10 -20 -14 -37 -8
-39 -14 -40 -38 -8 -13 19 -15 25 -4 25 7 0 18 -5 25 -12 9 -9 12 -9 12 1 0 7
-7 19 -15 28 -20 19 -11 30 10 13 12 -10 15 -10 15 4 0 9 -4 16 -10 16 -5 0
-10 7 -10 15 0 18 17 20 23 3 2 -7 8 -10 12 -6 5 5 0 18 -11 29 -19 21 -19 22
4 15 24 -8 29 3 10 22 -9 9 -8 12 6 12 13 0 16 5 11 21 -5 15 -4 19 4 15 15
-10 14 7 -1 22 -9 9 -8 12 5 12 20 0 22 11 5 29 -11 11 -10 13 5 8 20 -7 23
13 5 32 -11 10 -10 11 5 6 20 -8 23 5 5 23 -9 9 -9 12 1 12 8 0 10 7 6 21 -5
15 -4 19 4 15 6 -4 11 -3 11 3 0 5 -4 13 -10 16 -5 3 -10 11 -10 16 0 6 5 7
11 3 8 -4 9 1 4 16 -5 15 -4 20 4 16 15 -10 14 7 -1 22 -9 9 -9 12 1 12 9 0
10 4 4 13 -12 16 -14 59 -2 52 13 -9 11 9 -3 23 -9 9 -9 12 1 12 11 0 11 3 1
15 -7 8 -9 15 -5 15 4 0 2 7 -5 15 -10 12 -10 15 0 15 10 0 10 3 0 15 -6 8 -9
19 -5 25 3 5 2 10 -3 10 -5 0 -10 11 -11 25 -4 58 -6 65 -14 65 -5 0 -7 7 -3
15 3 8 1 15 -5 15 -6 0 -9 7 -5 15 3 8 1 15 -5 15 -6 0 -9 7 -5 15 3 8 1 15
-4 15 -5 0 -12 11 -16 25 -3 14 -11 25 -16 25 -6 0 -8 7 -4 15 3 8 2 15 -3 15
-5 0 -11 10 -14 23 -6 22 -6 22 9 2 8 -11 26 -41 39 -67z m-2590 -278 c3 -5 1
-10 -4 -10 -6 0 -11 5 -11 10 0 6 2 10 4 10 3 0 8 -4 11 -10z m-5 -30 c0 -5
-4 -10 -10 -10 -5 0 -10 5 -10 10 0 6 5 10 10 10 6 0 10 -4 10 -10z m7 -36
c-3 -3 -12 -4 -19 -1 -8 3 -5 6 6 6 11 1 17 -2 13 -5z m3 -32 c0 -4 -9 -8 -20
-9 -11 -1 -20 2 -20 8 0 5 9 9 20 9 11 0 20 -4 20 -8z m-6 -30 c2 -4 -4 -9
-15 -9 -10 -1 -19 2 -19 8 0 11 27 12 34 1z m1 -32 c3 -5 -3 -10 -14 -10 -12
0 -21 5 -21 10 0 6 6 10 14 10 8 0 18 -4 21 -10z m-11 -40 c-10 -4 -21 -6 -24
-3 -8 7 24 22 34 16 5 -4 1 -10 -10 -13z m19 -39 c3 -13 -1 -21 -14 -24 -11
-3 -19 -1 -19 4 0 5 5 9 10 9 6 0 10 4 10 10 0 5 -7 7 -15 4 -8 -4 -15 -1 -15
5 0 19 37 12 43 -8z m13 -52 c1 -8 2 -17 3 -21 0 -5 1 -11 2 -15 0 -5 5 -14
11 -20 6 -7 9 -13 7 -14 -24 -5 -49 -4 -49 3 0 4 5 8 10 8 6 0 10 7 10 15 0 9
-6 12 -15 9 -8 -4 -15 -1 -15 6 0 6 5 8 10 5 6 -3 10 1 10 9 0 10 -6 13 -15
10 -8 -4 -15 -2 -15 4 0 24 44 25 46 1z m754 -74 c19 -23 7 -35 -20 -19 l-25
15 25 -5 c24 -5 24 -4 6 9 -11 8 -15 15 -9 15 6 0 16 -7 23 -15z m-735 -24
c-3 -5 -1 -12 5 -16 5 -3 10 -11 10 -16 0 -11 -49 22 -50 34 0 4 9 7 21 7 11
0 18 -4 14 -9z m615 -15 c0 -2 -7 -7 -16 -10 -8 -3 -12 -2 -9 4 6 10 25 14 25
6z m-630 -16 c0 -5 -4 -10 -10 -10 -5 0 -10 5 -10 10 0 6 5 10 10 10 6 0 10
-4 10 -10z m750 0 c0 -5 7 -10 15 -10 18 0 19 -12 3 -28 -10 -10 -10 -15 2
-22 23 -15 28 -12 22 15 -3 19 0 25 14 25 14 0 16 -2 6 -9 -8 -4 -13 -14 -12
-22 5 -30 0 -37 -22 -31 -15 4 -19 2 -13 -7 6 -10 3 -11 -14 -2 -14 8 -21 8
-21 1 0 -5 -4 -10 -10 -10 -5 0 -10 7 -10 15 0 13 11 19 31 17 9 -2 5 50 -4
66 -5 7 -4 12 2 12 6 0 11 -4 11 -10z m-24 -36 c1 -16 0 -23 -3 -15 -5 11 -7
11 -14 0 -6 -9 -9 -10 -9 -2 0 6 5 15 10 18 20 12 10 26 -10 15 -11 -6 -18
-15 -15 -20 4 -6 -2 -7 -11 -3 -11 4 -13 8 -6 11 7 2 12 9 12 16 0 7 10 12 22
11 18 -1 23 -8 24 -31z m-716 6 c0 -5 -4 -10 -10 -10 -5 0 -10 5 -10 10 0 6 5
10 10 10 6 0 10 -4 10 -10z m30 0 c0 -5 -4 -10 -10 -10 -5 0 -10 5 -10 10 0 6
5 10 10 10 6 0 10 -4 10 -10z m850 -63 c0 -5 -8 -3 -18 6 -10 10 -22 14 -26
10 -4 -4 -11 -1 -16 7 -17 27 -10 30 25 9 19 -12 35 -26 35 -32z m-839 29 c-1
-12 -51 -17 -51 -6 0 9 28 19 43 16 5 -1 8 -5 8 -10z m19 -33 c0 -5 -14 -8
-30 -9 -17 -1 -30 3 -30 7 0 5 14 9 30 9 17 0 30 -3 30 -7z m900 3 c0 -3 -4
-8 -10 -11 -5 -3 -10 -1 -10 4 0 6 5 11 10 11 6 0 10 -2 10 -4z m-266 -32 c3
-8 2 -12 -4 -9 -6 3 -10 10 -10 16 0 14 7 11 14 -7z m136 0 c0 -2 -7 -4 -15
-4 -8 0 -15 4 -15 10 0 5 7 7 15 4 8 -4 15 -8 15 -10z m330 6 c0 -5 -4 -10
-10 -10 -5 0 -10 5 -10 10 0 6 5 10 10 10 6 0 10 -4 10 -10z m-1090 -8 c0 -5
-14 -9 -30 -10 -17 0 -28 4 -25 9 8 11 55 12 55 1z m660 -22 c0 -5 -5 -10 -11
-10 -5 0 -7 5 -4 10 3 6 8 10 11 10 2 0 4 -4 4 -10z m1237 4 c-3 -3 -12 -4
-19 -1 -8 3 -5 6 6 6 11 1 17 -2 13 -5z m-1887 -13 c0 -9 -41 -23 -48 -16 -2
2 -2 7 1 12 7 11 47 14 47 4z m705 -1 c-5 -9 15 -15 38 -11 4 0 7 -6 7 -15 0
-11 -5 -14 -16 -10 -12 5 -15 2 -10 -9 3 -9 2 -13 -4 -10 -6 3 -10 12 -10 20
0 7 -5 15 -12 17 -10 4 -4 28 8 28 3 0 2 -4 -1 -10z m225 0 c0 -5 -2 -10 -4
-10 -3 0 -8 5 -11 10 -3 6 -1 10 4 10 6 0 11 -4 11 -10z m274 1 c4 -5 -3 -7
-14 -4 -23 6 -26 13 -6 13 8 0 17 -4 20 -9z m253 -13 c-3 -8 -6 -5 -6 6 -1 11
2 17 5 13 3 -3 4 -12 1 -19z m-482 -8 c3 -5 1 -10 -4 -10 -6 0 -11 5 -11 10 0
6 2 10 4 10 3 0 8 -4 11 -10z m678 -5 c-3 -9 -8 -14 -10 -11 -3 3 -2 9 2 15 9
16 15 13 8 -4z m-1633 -13 c0 -4 -14 -8 -30 -9 -36 -3 -39 4 -7 16 22 9 37 6
37 -7z m800 -2 c15 -15 16 -20 6 -20 -8 0 -18 5 -21 10 -4 6 -10 8 -15 5 -5
-3 -12 0 -16 6 -4 8 -3 9 4 5 7 -4 12 -2 12 3 0 16 7 14 30 -9z m276 -3 c3
-22 -9 -22 -29 1 -16 18 -16 19 5 17 12 -1 22 -9 24 -18z m53 7 c5 4 12 3 15
-2 3 -5 0 -9 -7 -9 -7 0 -18 -2 -26 -4 -7 -2 -15 4 -16 14 -3 14 -1 16 10 7 8
-7 19 -9 24 -6z m41 6 c0 -5 -2 -10 -4 -10 -3 0 -8 5 -11 10 -3 6 -1 10 4 10
6 0 11 -4 11 -10z m307 4 c-3 -3 -12 -4 -19 -1 -8 3 -5 6 6 6 11 1 17 -2 13
-5z m263 2 c0 -2 -9 -6 -20 -9 -11 -3 -18 -1 -14 4 5 9 34 13 34 5z m-471 -33
c3 -2 -6 -2 -19 -1 -12 2 -25 -3 -27 -9 -3 -7 3 -13 14 -14 16 0 16 -1 -2 -8
-11 -5 -23 -4 -26 2 -4 5 -13 6 -20 1 -10 -6 -5 -11 16 -20 l30 -12 -37 1
c-21 0 -33 4 -27 8 8 5 8 8 0 13 -6 4 -15 4 -21 1 -5 -3 -10 1 -10 9 0 16 9
19 47 16 13 -1 27 7 35 19 10 16 15 18 28 8 8 -6 17 -13 19 -14z m640 24 c-2
-1 -13 -9 -24 -17 -19 -14 -19 -14 -6 3 7 9 18 17 24 17 6 0 8 -1 6 -3z
m-1051 -20 c13 5 14 3 5 -7 -13 -14 -33 -5 -32 13 0 9 2 9 5 0 3 -7 13 -9 22
-6z m522 -8 c12 -9 11 -10 -6 -6 -12 2 -30 0 -40 -6 -17 -9 -18 -9 -5 6 16 20
30 21 51 6z m-1370 -7 c0 -4 -11 -9 -26 -10 -14 -1 -23 2 -19 8 7 12 45 14 45
2z m1110 -17 c-7 -8 -17 -12 -22 -9 -6 4 -5 10 3 15 22 14 33 10 19 -6z m350
5 c0 -5 -2 -10 -4 -10 -3 0 -8 5 -11 10 -3 6 -1 10 4 10 6 0 11 -4 11 -10z
m90 6 c0 -2 -7 -7 -16 -10 -8 -3 -12 -2 -9 4 6 10 25 14 25 6z m846 -11 c11
-29 -2 -37 -19 -11 -15 23 -16 26 -2 26 9 0 18 -7 21 -15z m-1376 -7 c0 -4 -7
-8 -15 -8 -8 0 -15 4 -15 8 0 5 7 9 15 9 8 0 15 -4 15 -9z m50 -8 c0 -13 -5
-18 -15 -14 -16 7 -19 17 -8 27 12 13 23 7 23 -13z m214 11 c4 -5 -3 -7 -14
-4 -23 6 -26 13 -6 13 8 0 17 -4 20 -9z m411 -13 c6 -4 2 -8 -7 -8 -10 0 -18
7 -18 17 0 9 3 12 8 7 4 -5 12 -12 17 -16z m-1675 2 c0 -5 -12 -10 -26 -10
-14 0 -23 4 -19 10 3 6 15 10 26 10 10 0 19 -4 19 -10z m1621 -13 c-10 -9 -11
-8 -5 6 3 10 9 15 12 12 3 -3 0 -11 -7 -18z m-297 -8 c-3 -5 -15 -14 -27 -20
-21 -12 -21 -11 -4 8 9 11 14 23 10 27 -4 4 0 4 10 0 9 -3 14 -10 11 -15z
m103 -1 c2 -17 0 -19 -7 -8 -5 8 -6 18 -4 22 8 12 10 10 11 -14z m927 -37 l-7
-34 -18 24 c-24 31 -24 42 1 29 20 -11 30 3 10 15 -5 3 -10 11 -10 18 0 7 6 6
15 -4 11 -11 13 -25 9 -48z m-1369 39 c3 -5 1 -10 -4 -10 -6 0 -11 5 -11 10 0
6 2 10 4 10 3 0 8 -4 11 -10z m110 0 c3 -5 1 -10 -4 -10 -6 0 -11 5 -11 10 0
6 2 10 4 10 3 0 8 -4 11 -10z m-1079 -12 c5 -8 2 -9 -9 -5 -9 3 -19 2 -22 -3
-8 -13 -25 -13 -25 -1 0 8 15 15 42 20 4 0 10 -4 14 -11z m1148 -5 c11 1 21
-5 23 -13 4 -13 3 -13 -6 0 -10 13 -12 13 -21 0 -8 -13 -13 -12 -32 9 -21 21
-21 22 -3 13 12 -6 29 -10 39 -9z m-104 -15 c0 -5 -9 -4 -20 2 -11 6 -20 12
-20 14 0 2 9 2 20 -1 11 -3 20 -9 20 -15z m205 2 c3 -6 -1 -7 -9 -4 -18 7 -21
14 -7 14 6 0 13 -4 16 -10z m265 0 c0 -5 -5 -10 -11 -10 -5 0 -7 5 -4 10 3 6
8 10 11 10 2 0 4 -4 4 -10z m-1506 -21 c-27 -11 -44 -11 -44 0 0 12 30 19 49
12 11 -3 10 -6 -5 -12z m1476 16 c0 -7 -30 -13 -34 -7 -3 4 4 9 15 9 10 1 19
0 19 -2z m818 -27 c7 -7 12 -21 11 -32 0 -15 -2 -17 -6 -6 -3 8 -12 19 -19 23
-15 9 -19 27 -6 27 4 0 13 -5 20 -12z m-2293 -20 c-16 -4 -31 -5 -33 -3 -8 7
42 23 53 17 5 -3 -4 -9 -20 -14z m1082 -4 c-3 -3 -12 -4 -19 -1 -8 3 -5 6 6 6
11 1 17 -2 13 -5z m-1042 -14 c3 -5 3 -10 -2 -10 -4 0 -19 -3 -33 -6 -24 -5
-24 -5 -6 10 23 19 32 20 41 6z m2245 -9 c20 -39 4 -43 -23 -6 -15 21 -16 25
-3 25 8 0 20 -9 26 -19z m-2200 -61 c0 -3 -15 -6 -33 -7 -28 -2 -30 -1 -14 11
24 19 21 27 -8 20 -15 -4 -25 -2 -25 4 0 20 45 18 62 -3 10 -11 18 -22 18 -25z
m2172 33 c18 -16 24 -33 11 -33 -10 1 -46 50 -37 50 4 0 16 -7 26 -17z m-7
-44 c4 -10 0 -25 -7 -32 -11 -11 -16 -10 -32 5 -16 15 -17 18 -4 18 9 0 19 -6
21 -12 3 -8 6 -7 6 4 1 9 -3 20 -9 23 -16 10 -12 25 5 19 8 -3 17 -14 20 -25z
m-2147 -21 c7 -7 12 -16 12 -22 0 -5 -3 -6 -7 -3 -3 4 -12 2 -20 -5 -19 -16
-29 -2 -12 18 12 15 11 16 -9 10 -13 -5 -22 -3 -22 3 0 15 43 14 58 -1z m1216
-13 c-7 -16 -24 -21 -24 -6 0 8 7 13 27 20 1 1 0 -6 -3 -14z m-524 -5 c0 -5
-2 -10 -4 -10 -3 0 -8 5 -11 10 -3 6 -1 10 4 10 6 0 11 -4 11 -10z m1380 0 c0
-5 -2 -10 -4 -10 -3 0 -8 5 -11 10 -3 6 -1 10 4 10 6 0 11 -4 11 -10z m-800
-14 c0 -3 -4 -8 -10 -11 -5 -3 -10 -1 -10 4 0 6 5 11 10 11 6 0 10 -2 10 -4z
m846 -10 c10 -8 17 -17 14 -19 -3 -3 -16 3 -29 14 -27 22 -15 26 15 5z m-2056
-11 c-7 -8 -18 -15 -24 -15 -6 0 -2 7 8 15 25 19 32 19 16 0z m344 -11 c6 -15
4 -15 -11 -3 -10 7 -20 15 -22 16 -2 2 3 3 11 3 9 0 19 -7 22 -16z m292 4 c4
-7 3 -8 -4 -4 -7 4 -12 2 -12 -3 0 -6 -4 -11 -10 -11 -5 0 -7 7 -4 15 7 18 20
19 30 3z m132 5 c-10 -2 -26 -2 -35 0 -10 3 -2 5 17 5 19 0 27 -2 18 -5z m253
-10 c13 -16 12 -17 -3 -4 -10 7 -18 15 -18 17 0 8 8 3 21 -13z m1019 -28 c0
-2 -13 4 -30 13 -16 9 -30 21 -30 25 0 5 14 -1 30 -13 17 -12 30 -23 30 -25z
m-900 10 c0 -9 -6 -12 -16 -8 -13 5 -13 7 -2 14 17 11 18 11 18 -6z m-635 -5
c-4 -6 5 -20 20 -32 21 -16 24 -23 13 -29 -19 -13 -66 -11 -74 3 -5 7 -3 8 6
3 10 -6 12 -4 7 8 -3 10 -3 17 2 17 5 0 11 9 14 20 3 11 8 20 12 20 3 0 3 -5
0 -10z m-495 -10 c0 -5 -5 -10 -11 -10 -5 0 -7 5 -4 10 3 6 8 10 11 10 2 0 4
-4 4 -10z m610 0 c-8 -5 -19 -10 -25 -10 -5 0 -3 5 5 10 8 5 20 10 25 10 6 0
3 -5 -5 -10z m409 -4 c7 -8 8 -17 3 -20 -6 -3 -12 3 -15 14 -6 24 -4 25 12 6z
m-1049 0 c0 -3 -4 -8 -10 -11 -5 -3 -10 -1 -10 4 0 6 5 11 10 11 6 0 10 -2 10
-4z m237 -2 c-3 -3 -12 -4 -19 -1 -8 3 -5 6 6 6 11 1 17 -2 13 -5z m469 -21
c0 -1 -14 1 -31 4 -25 5 -26 7 -10 13 15 5 49 -8 41 -17z m309 17 c3 -5 1 -10
-4 -10 -6 0 -11 5 -11 10 0 6 2 10 4 10 3 0 8 -4 11 -10z m162 -20 c4 -13 3
-13 -6 0 -9 12 -13 12 -19 2 -9 -14 -74 -13 -65 0 2 5 14 6 25 2 14 -4 18 -3
13 6 -5 8 1 11 21 8 15 -2 29 -10 31 -18z m74 5 c0 -6 -11 -11 -23 -12 -15 -1
-17 0 -5 3 9 3 14 10 11 16 -4 6 -1 9 5 7 7 -3 12 -9 12 -14z m154 -5 c3 -6
-1 -7 -9 -4 -18 7 -21 14 -7 14 6 0 13 -4 16 -10z m-605 -9 c0 -4 -11 -6 -25
-3 -14 2 -25 6 -25 8 0 2 11 4 25 4 14 0 25 -4 25 -9z m160 5 c0 -2 -13 -6
-29 -8 -17 -2 -28 -1 -25 4 5 8 54 12 54 4z m1040 -47 c0 -6 -5 -5 -12 1 -7 5
-24 19 -38 30 -23 19 -23 19 13 -1 20 -11 37 -25 37 -30z m-786 9 c6 -4 8 -10
4 -13 -9 -10 -39 26 -31 38 4 7 8 6 11 -3 3 -8 10 -18 16 -22z m-633 -6 c-8
-3 -6 -9 6 -19 14 -12 13 -12 -9 1 -16 9 -28 12 -32 5 -2 -5 -3 -4 -1 3 1 7 8
12 14 10 6 -1 15 6 18 15 5 13 8 14 11 3 3 -8 0 -16 -7 -18z m249 7 c0 -5 -4
-9 -10 -9 -5 0 -10 7 -10 16 0 8 5 12 10 9 6 -3 10 -10 10 -16z m65 11 c3 -5
13 -10 21 -10 9 0 12 5 8 11 -4 8 1 9 17 3 13 -4 30 -7 37 -7 6 0 12 -10 12
-21 0 -14 -3 -17 -8 -9 -4 7 -17 11 -29 10 -17 -1 -19 -4 -11 -14 13 -17 52
-16 102 2 44 15 70 10 61 -13 -5 -14 -3 -13 13 1 14 13 21 14 30 5 8 -8 15 -8
24 0 9 7 19 7 28 2 13 -8 12 -10 -2 -10 -9 0 -18 -6 -21 -12 -4 -10 -7 -10
-18 0 -17 16 -29 15 -29 -3 0 -12 -4 -13 -25 -3 -13 6 -22 15 -19 19 3 5 0 9
-5 9 -6 0 -11 -8 -11 -17 0 -11 -3 -14 -8 -7 -9 15 -41 9 -61 -10 -14 -15 -13
-16 5 -16 11 0 25 5 32 12 9 9 12 9 12 0 0 -7 10 -9 30 -5 19 3 30 1 30 -6 0
-6 7 -11 15 -11 8 0 15 7 15 15 0 8 5 15 10 15 6 0 10 -4 10 -9 0 -5 7 -12 16
-15 12 -4 15 -2 11 9 -9 22 14 31 29 11 7 -10 17 -15 23 -11 6 3 11 -1 11 -9
0 -9 -3 -15 -7 -15 -5 1 -18 1 -31 0 -19 -1 -21 -3 -10 -15 9 -10 15 -11 20
-2 6 8 8 8 8 0 0 -7 -11 -19 -25 -28 -14 -9 -23 -21 -20 -26 4 -6 -1 -10 -10
-10 -9 0 -13 5 -10 10 9 15 -6 12 -24 -4 -23 -21 -76 -25 -76 -6 0 8 -8 16
-17 18 -10 2 -18 -1 -18 -7 0 -6 4 -11 10 -11 5 0 14 -8 19 -18 7 -14 6 -18
-9 -18 -10 0 -17 4 -14 7 2 4 0 10 -6 14 -6 3 -10 -4 -10 -16 0 -21 -1 -22
-20 -4 -15 14 -20 15 -21 4 0 -8 -4 -5 -8 6 -5 12 -4 23 3 27 6 5 2 8 -11 8
-12 0 -24 -4 -28 -10 -3 -5 -13 -6 -21 -3 -13 5 -13 7 -2 14 9 6 2 9 -19 9
-19 0 -37 7 -45 18 -7 10 -25 22 -40 26 -16 3 -28 11 -28 16 0 5 7 7 16 3 12
-4 15 -2 12 8 -5 14 -28 28 -78 47 l-25 9 28 0 c15 0 30 -3 33 -8 8 -14 19
-11 45 12 13 11 30 18 39 16 20 -5 45 19 27 26 -9 4 -9 6 0 6 6 1 15 -3 18 -9z
m246 -2 c18 0 29 -4 29 -13 0 -16 -50 -15 -67 2 -16 15 -17 27 -2 17 7 -4 25
-7 40 -6z m-391 -8 c0 -7 6 -7 18 -1 14 8 18 6 19 -10 1 -13 -2 -17 -10 -12
-7 4 -15 8 -19 9 -5 1 -9 2 -10 3 -2 2 -14 5 -27 7 -37 7 -38 14 -3 14 18 0
32 -5 32 -10z m280 0 c-8 -5 -19 -10 -25 -10 -5 0 -3 5 5 10 8 5 20 10 25 10
6 0 3 -5 -5 -10z m905 -10 c3 -5 1 -10 -4 -10 -6 0 -11 5 -11 10 0 6 2 10 4
10 3 0 8 -4 11 -10z m-27 -18 c6 -18 -15 -14 -22 4 -4 10 -1 14 6 12 6 -2 14
-10 16 -16z m-1263 -22 c-3 -5 -12 -7 -20 -3 -21 7 -19 13 6 13 11 0 18 -4 14
-10z m118 -24 c4 -10 1 -13 -9 -9 -15 6 -19 23 -5 23 5 0 11 -7 14 -14z m197
-136 c0 -5 -5 -10 -11 -10 -5 0 -7 5 -4 10 3 6 8 10 11 10 2 0 4 -4 4 -10z"/>
<path d="M5313 4665 c0 -7 6 -11 14 -8 7 3 13 6 13 8 0 2 -6 5 -13 8 -8 3 -14
-1 -14 -8z"/>
<path d="M5350 4660 c0 -5 5 -10 10 -10 6 0 10 5 10 10 0 6 -4 10 -10 10 -5 0
-10 -4 -10 -10z"/>
<path d="M5230 3819 c0 -5 5 -7 10 -4 6 3 10 8 10 11 0 2 -4 4 -10 4 -5 0 -10
-5 -10 -11z"/>
<path d="M5125 1250 c-3 -5 3 -10 14 -10 12 0 21 5 21 10 0 6 -6 10 -14 10 -8
0 -18 -4 -21 -10z"/>
<path d="M5205 1250 c-3 -5 -1 -10 4 -10 6 0 11 5 11 10 0 6 -2 10 -4 10 -3 0
-8 -4 -11 -10z"/>
<path d="M5126 1216 c4 -11 18 -16 43 -15 l36 1 -31 7 c-17 4 -36 11 -42 15
-8 5 -10 2 -6 -8z"/>
<path d="M5288 1183 c6 -3 12 -8 12 -13 0 -4 11 -7 24 -6 32 1 20 13 -19 18
-16 3 -24 3 -17 1z"/>
<path d="M5160 1159 c0 -11 21 -11 39 0 9 6 5 9 -13 9 -14 0 -26 -4 -26 -9z"/>
<path d="M5270 1156 c0 -8 -8 -17 -17 -19 -12 -3 -9 -5 8 -6 14 0 30 -6 37
-13 9 -9 15 -9 24 0 9 9 8 12 -6 12 -9 0 -15 4 -12 8 2 4 -4 13 -15 20 -15 10
-19 10 -19 -2z"/>
<path d="M6840 3590 c0 -5 10 -15 23 -21 22 -12 22 -12 3 10 -21 23 -26 26
-26 11z"/>
<path d="M6815 3521 c-3 -5 -1 -12 5 -16 5 -3 10 1 10 9 0 18 -6 21 -15 7z"/>
<path d="M3720 3380 c0 -5 5 -10 11 -10 5 0 7 5 4 10 -3 6 -8 10 -11 10 -2 0
-4 -4 -4 -10z"/>
<path d="M6739 3204 c-10 -13 -10 -17 0 -24 10 -6 9 -10 -5 -18 -10 -6 -15
-14 -11 -19 10 -10 31 24 34 55 2 26 0 27 -18 6z"/>
<path d="M6641 3036 c-9 -10 -8 -15 1 -19 7 -2 17 -6 22 -8 5 -2 10 4 12 13 1
11 -3 15 -14 11 -10 -4 -13 -2 -8 5 10 16 1 15 -13 -2z"/>
<path d="M3935 2980 c-3 -5 -1 -10 4 -10 6 0 11 5 11 10 0 6 -2 10 -4 10 -3 0
-8 -4 -11 -10z"/>
<path d="M6525 2890 c3 -5 8 -10 11 -10 2 0 4 5 4 10 0 6 -5 10 -11 10 -5 0
-7 -4 -4 -10z"/>
<path d="M6510 2845 c0 -14 2 -25 4 -25 2 0 6 11 8 25 3 14 1 25 -3 25 -5 0
-9 -11 -9 -25z"/>
<path d="M3995 2840 c3 -5 8 -10 11 -10 2 0 4 5 4 10 0 6 -5 10 -11 10 -5 0
-7 -4 -4 -10z"/>
<path d="M4020 2819 c0 -5 5 -7 10 -4 6 3 10 8 10 11 0 2 -4 4 -10 4 -5 0 -10
-5 -10 -11z"/>
<path d="M7324 2547 c7 -26 12 -34 15 -21 2 10 7 24 13 31 9 11 6 15 -23 26
-14 4 -14 0 -5 -36z"/>
<path d="M7386 2545 c4 -8 8 -15 10 -15 2 0 4 7 4 15 0 8 -4 15 -10 15 -5 0
-7 -7 -4 -15z"/>
<path d="M7556 2444 c18 -26 28 -27 18 -1 -3 8 -12 18 -20 21 -11 4 -11 0 2
-20z"/>
<path d="M7598 2443 c7 -3 16 -2 19 1 4 3 -2 6 -13 5 -11 0 -14 -3 -6 -6z"/>
<path d="M7638 2433 c7 -3 16 -2 19 1 4 3 -2 6 -13 5 -11 0 -14 -3 -6 -6z"/>
<path d="M7737 2393 c17 -19 27 -24 30 -15 3 6 9 10 14 6 5 -3 9 -2 9 1 0 5
-63 35 -74 35 -3 0 7 -12 21 -27z"/>
<path d="M7710 2381 c0 -6 4 -13 10 -16 6 -3 7 1 4 9 -7 18 -14 21 -14 7z"/>
<path d="M7798 2363 c6 -2 18 -2 25 0 6 3 1 5 -13 5 -14 0 -19 -2 -12 -5z"/>
<path d="M7886 2313 c-6 -14 -5 -15 5 -6 7 7 10 15 7 18 -3 3 -9 -2 -12 -12z"/>
<path d="M7911 2315 c-2 -24 53 -62 65 -44 4 7 13 4 25 -7 24 -22 65 -28 48
-7 -6 7 -20 13 -29 13 -10 0 -20 5 -22 11 -2 5 -10 11 -18 12 -8 2 -21 6 -27
10 -7 5 -17 6 -22 3 -5 -4 -12 0 -14 6 -3 7 -6 9 -6 3z"/>
<path d="M8090 2191 c0 -27 -3 -58 -7 -68 -3 -10 -3 -15 1 -11 10 8 34 116 28
123 -15 15 -22 0 -22 -44z"/>
<path d="M8205 2033 c-33 -281 -21 -698 30 -1018 7 -49 17 -112 20 -140 18
-143 92 -444 197 -807 l20 -68 55 0 c48 0 54 2 48 17 -4 10 -15 50 -25 88 -10
39 -40 151 -68 250 -88 319 -128 535 -167 904 -3 29 -10 151 -15 270 -8 174
-7 242 5 351 16 146 34 259 44 275 14 24 6 33 -36 39 -96 13 -86 27 -108 -161z"/>
<path d="M8363 2161 c-11 -18 -10 -19 4 -14 12 5 15 2 10 -10 -3 -9 -2 -17 3
-17 9 0 13 13 12 30 0 3 8 7 19 7 13 1 19 -5 19 -17 0 -13 5 -17 15 -14 16 6
20 30 7 38 -4 2 -23 7 -42 11 -29 5 -37 2 -47 -14z"/>
<path d="M3148 2098 c-16 -5 -28 -14 -28 -19 0 -6 -6 -7 -12 -3 -7 4 -10 4 -6
-1 4 -4 3 -14 -3 -22 -19 -23 -1 -14 25 12 25 25 42 34 31 15 -3 -5 -2 -10 4
-10 5 0 13 5 16 10 4 6 10 8 15 5 4 -3 13 2 20 10 10 13 9 15 -11 14 -13 0
-36 -5 -51 -11z"/>
<path d="M8440 1947 c-12 -196 -2 -504 24 -737 35 -307 53 -416 117 -680 17
-69 40 -163 51 -210 11 -47 34 -138 51 -202 l32 -118 126 0 c126 0 146 4 130
24 -5 6 -4 21 2 36 8 21 11 22 14 7 3 -10 12 -16 21 -15 12 2 18 -5 20 -24 2
-16 8 -28 13 -28 6 0 7 5 4 10 -3 6 -1 10 4 10 6 0 11 -4 11 -10 0 -15 47 -12
53 3 4 9 6 9 6 0 1 -18 21 -16 21 2 0 8 -5 15 -11 15 -5 0 -8 4 -4 10 8 13 35
1 35 -15 0 -15 19 -22 68 -24 25 -1 31 2 26 11 -6 10 -5 10 7 1 10 -8 165 -12
577 -12 l562 -2 0 184 c0 175 -1 187 -26 248 -14 35 -29 69 -34 74 -4 6 -17
35 -28 66 -42 114 -186 380 -268 495 -62 87 -286 308 -385 380 -81 59 -249
152 -249 138 0 -3 -6 -2 -12 3 -12 9 -76 34 -103 39 -34 7 -130 49 -181 80
-94 57 -215 112 -264 119 -66 11 -132 38 -214 89 -41 25 -78 46 -83 46 -6 0
-30 13 -54 30 -24 16 -46 30 -49 30 -3 0 -7 -33 -10 -73z m523 -1324 c-4 -10
-9 -11 -19 -2 -18 15 -18 15 5 15 11 0 17 -5 14 -13z m-187 -5 c4 -7 3 -8 -4
-4 -7 4 -12 2 -12 -3 0 -6 -4 -11 -10 -11 -5 0 -7 7 -4 15 7 18 20 19 30 3z
m-28 -69 c-3 -8 -7 -3 -11 10 -4 17 -3 21 5 13 5 -5 8 -16 6 -23z m8 -116 c-8
-8 -36 10 -36 25 0 13 3 12 20 -3 11 -10 18 -20 16 -22z m364 -1 c0 -7 -4 -10
-10 -7 -5 3 -10 16 -10 28 0 18 2 19 10 7 5 -8 10 -21 10 -28z m-407 -4 c14
-9 -10 -38 -31 -38 -12 0 -13 3 -4 12 7 7 12 23 13 38 0 15 3 19 6 10 3 -8 11
-18 16 -22z m-41 -10 c-7 -7 -12 -8 -12 -2 0 14 12 26 19 19 2 -3 -1 -11 -7
-17z m178 -24 c0 -14 -3 -14 -15 -4 -8 7 -15 14 -15 16 0 2 7 4 15 4 8 0 15
-7 15 -16z m-70 -4 c0 -5 -5 -10 -11 -10 -5 0 -7 5 -4 10 3 6 8 10 11 10 2 0
4 -4 4 -10z m-50 -37 c0 -25 -14 -24 -15 0 -1 7 -6 11 -13 10 -16 -4 -16 14 1
20 19 7 27 -2 27 -30z m170 -90 c-8 -3 -18 -11 -22 -17 -9 -14 -22 -1 -13 13
3 6 16 11 28 10 15 0 17 -2 7 -6z m15 -27 c17 7 26 -8 14 -26 -6 -10 -9 -11
-9 -2 0 6 -9 12 -20 12 -20 0 -26 11 -13 24 4 4 9 3 11 -3 2 -5 9 -8 17 -5z
m92 -42 c-3 -3 -12 -4 -19 -1 -8 3 -5 6 6 6 11 1 17 -2 13 -5z m236 -9 c4 -8
2 -17 -3 -20 -6 -4 -10 -4 -10 -1 0 2 -3 11 -6 20 -3 9 -2 16 4 16 5 0 12 -7
15 -15z m45 -27 c8 -10 11 -18 6 -18 -12 0 -42 20 -30 20 5 0 3 6 -3 13 -6 8
-8 17 -4 21 4 4 9 1 12 -6 2 -7 10 -21 19 -30z m-208 6 c0 -2 -7 -4 -15 -4 -8
0 -15 4 -15 10 0 5 7 7 15 4 8 -4 15 -8 15 -10z m-200 -9 c0 -8 -4 -15 -10
-15 -5 0 -7 7 -4 15 4 8 8 15 10 15 2 0 4 -7 4 -15z m165 -35 c3 -6 -1 -7 -9
-4 -18 7 -21 14 -7 14 6 0 13 -4 16 -10z m-75 -20 c0 -5 -4 -12 -10 -15 -5 -3
-10 -4 -10 -1 0 2 -3 12 -6 20 -5 12 -2 15 10 10 9 -3 16 -10 16 -14z m23 5
c-3 -9 -8 -14 -10 -11 -3 3 -2 9 2 15 9 16 15 13 8 -4z m150 -6 c10 -11 17
-27 15 -35 -2 -8 -12 1 -26 21 -24 38 -17 47 11 14z m185 -56 c-6 -7 -12 -13
-13 -13 -2 0 -5 6 -8 13 -3 7 3 13 14 13 13 0 15 -3 7 -13z"/>
<path d="M2816 1857 c3 -10 9 -15 12 -12 3 3 0 11 -7 18 -10 9 -11 8 -5 -6z"/>
<path d="M2478 1682 c-31 -9 -59 -20 -62 -24 -3 -5 -3 -6 1 -3 12 10 53 -136
84 -305 51 -271 68 -511 64 -895 -3 -181 -7 -358 -11 -393 l-7 -62 56 0 56 0
5 53 c11 107 17 279 17 517 0 361 -21 593 -82 880 -16 80 -35 169 -41 198 -6
28 -14 52 -17 51 -3 0 -32 -8 -63 -17z"/>
<path d="M2385 1650 c-5 -8 10 -50 19 -50 1 0 1 14 -2 30 -5 32 -7 36 -17 20z"/>
<path d="M2320 1631 c0 -6 5 -13 10 -16 6 -4 8 -10 6 -14 -5 -8 11 -38 17 -31
7 9 -13 70 -23 70 -6 0 -10 -4 -10 -9z"/>
<path d="M2284 1466 c-77 -62 -173 -130 -345 -242 -149 -98 -182 -119 -274
-169 -39 -21 -155 -87 -185 -105 -172 -102 -248 -145 -301 -168 -163 -74 -310
-225 -462 -473 -63 -103 -167 -292 -167 -303 0 -4 191 -6 425 -6 234 1 425 4
425 9 0 4 7 8 15 8 8 0 12 -4 9 -8 -3 -5 215 -8 485 -8 l490 1 5 26 c28 138
31 712 6 934 -6 46 -14 121 -20 168 -11 100 -37 278 -47 336 l-8 41 -51 -41z
m-81 -1267 c-9 -9 -12 -7 -10 9 1 14 5 18 11 12 7 -7 6 -14 -1 -21z m-47 -76
c-7 -7 -26 7 -26 19 0 6 6 6 15 -2 9 -7 13 -15 11 -17z m-11 -21 c-3 -3 -11 0
-18 7 -9 10 -8 11 6 5 10 -3 15 -9 12 -12z m2 -18 c-3 -3 -12 -4 -19 -1 -8 3
-5 6 6 6 11 1 17 -2 13 -5z"/>
<path d="M7262 1429 c-46 -23 -86 -75 -96 -124 -4 -16 1 -57 9 -90 11 -40 12
-61 5 -63 -17 -6 -11 -35 15 -75 21 -31 32 -37 60 -37 21 0 53 -12 82 -30 154
-98 323 -70 384 65 23 49 24 81 3 141 -14 42 -14 47 2 65 16 18 15 20 -20 54
-21 19 -46 35 -56 35 -24 0 -60 -38 -109 -115 -30 -48 -36 -65 -28 -82 13 -30
-17 -73 -53 -73 -29 0 -60 27 -60 51 0 26 27 53 54 54 22 1 37 17 81 85 30 45
53 85 51 89 -3 3 -21 15 -41 26 l-37 19 -18 -24 c-10 -13 -39 -65 -65 -114
-50 -95 -65 -119 -72 -113 -2 3 25 61 61 129 36 69 62 128 59 132 -16 15 -35
3 -49 -31 -32 -80 -99 -214 -102 -204 -2 6 12 45 31 88 55 121 66 151 59 157
-14 15 -110 5 -150 -15z"/>
<path d="M6971 899 c1 -46 4 -109 7 -139 l7 -55 40 -2 c22 -1 57 -5 78 -9 35
-6 38 -5 52 29 11 26 12 48 6 82 -12 65 -33 85 -93 85 l-48 0 0 40 c0 22 -4
40 -9 40 -5 0 -16 3 -25 6 -14 5 -16 -5 -15 -77z m129 -68 c13 -25 13 -78 0
-86 -6 -4 -24 -4 -40 0 -28 6 -30 9 -30 56 0 48 1 49 30 49 19 0 33 -7 40 -19z"/>
<path d="M7188 945 c-12 -12 5 -45 23 -45 29 0 34 4 30 20 -4 18 -1 16 -27 24
-11 3 -23 4 -26 1z"/>
<path d="M7286 827 c9 -141 15 -161 52 -154 15 3 46 0 69 -6 62 -16 76 -1 71
81 -4 55 -8 68 -32 88 -18 16 -40 24 -66 24 -36 0 -39 2 -42 32 -2 25 -9 33
-31 39 l-29 8 8 -112z m132 -40 c19 -39 8 -77 -21 -77 -34 0 -47 19 -47 68 0
41 1 43 27 40 19 -2 32 -12 41 -31z"/>
<path d="M7498 904 c-7 -7 2 -44 11 -44 3 0 16 -3 29 -6 18 -5 22 -2 22 14 0
27 -45 53 -62 36z"/>
<path d="M7195 793 c8 -111 9 -113 41 -113 l26 0 -7 93 c-4 50 -9 95 -12 100
-2 4 -15 7 -29 7 l-25 0 6 -87z"/>
<path d="M7507 788 c14 -125 16 -133 47 -136 l28 -4 -7 74 c-10 97 -19 118
-49 118 -24 0 -25 -2 -19 -52z"/>
<path d="M7610 805 c-8 -9 -10 -27 -6 -47 4 -18 7 -46 7 -62 0 -16 4 -35 10
-42 6 -7 6 -15 1 -18 -14 -9 -2 -53 20 -72 24 -23 141 -32 163 -14 23 19 18
68 -10 95 -20 21 -34 25 -80 25 -34 0 -55 4 -55 11 0 8 15 9 45 5 62 -10 85 5
85 54 0 21 4 41 10 45 5 3 7 12 4 19 -8 20 -177 21 -194 1z m118 -53 c3 -21 0
-23 -30 -20 -26 2 -34 8 -36 26 -3 21 0 23 30 20 26 -2 34 -8 36 -26z m26
-138 c8 -22 -1 -34 -27 -34 -27 0 -42 10 -50 33 -5 14 0 17 32 17 26 0 41 -5
45 -16z"/>
<path d="M7863 810 c-32 -13 -46 -45 -38 -92 11 -64 42 -88 113 -88 75 0 92
16 92 86 -1 52 -11 74 -47 92 -25 14 -88 15 -120 2z m92 -46 c10 -11 15 -29
13 -53 -2 -29 -8 -37 -26 -39 -34 -5 -52 15 -52 58 0 49 33 66 65 34z"/>
<path d="M4245 653 c-203 -73 -224 -83 -631 -291 -225 -115 -293 -144 -319
-138 -14 4 -25 2 -25 -4 0 -5 -5 -10 -11 -10 -8 0 -8 4 0 14 9 10 8 16 -3 26
-9 6 -20 9 -25 6 -5 -4 -13 -1 -17 5 -4 7 -3 9 3 6 7 -4 13 8 16 31 2 20 14
61 25 89 20 51 16 77 -7 49 -37 -44 -120 -199 -130 -243 -32 -135 23 -204 137
-172 43 12 223 122 230 140 2 5 9 9 15 9 6 0 60 33 121 73 249 165 351 232
361 236 5 2 24 14 40 26 17 12 84 49 150 81 143 70 131 62 119 73 -5 4 -27 1
-49 -6z"/>
<path d="M8990 10 c0 -5 5 -10 10 -10 6 0 10 5 10 10 0 6 -4 10 -10 10 -5 0
-10 -4 -10 -10z"/>
</g>
</svg>
