<svg width="48" height="48" viewBox="0 0 48 48" fill="none" xmlns="http://www.w3.org/2000/svg">
<circle cx="20" cy="20" r="20" fill="#5AB4C5"/>
<path d="M36.0839 24.558L36.0749 24.466C35.944 23.1299 35.819 21.7932 35.6999 20.456C35.6664 20.2117 35.5461 19.9876 35.3611 19.8246C35.176 19.6616 34.9385 19.5705 34.6919 19.568H31.5209C31.2525 19.568 30.9951 19.6746 30.8054 19.8644C30.6156 20.0542 30.5089 20.3116 30.5089 20.58C30.5089 20.8484 30.6156 21.1058 30.8054 21.2956C30.9951 21.4854 31.2525 21.592 31.5209 21.592H33.7829L33.9689 23.857H30.6909C30.5554 23.8528 30.4205 23.8758 30.294 23.9247C30.1676 23.9736 30.0522 24.0474 29.9549 24.1418C29.8575 24.2361 29.7801 24.3491 29.7272 24.4739C29.6744 24.5988 29.6471 24.7329 29.6471 24.8685C29.6471 25.0041 29.6744 25.1383 29.7272 25.2631C29.7801 25.388 29.8575 25.5009 29.9549 25.5953C30.0522 25.6896 30.1676 25.7634 30.294 25.8124C30.4205 25.8613 30.5554 25.8843 30.6909 25.88H34.1489L34.3279 27.82H29.6099L28.6239 26.362C28.4818 26.1438 28.2596 25.9901 28.0053 25.934C27.7509 25.8779 27.4847 25.9239 27.2639 26.062C27.1487 26.129 27.0481 26.2183 26.9679 26.3248C26.8877 26.4312 26.8296 26.5526 26.797 26.6818C26.7644 26.8111 26.7579 26.9455 26.778 27.0772C26.7981 27.209 26.8443 27.3354 26.9139 27.449C27.3763 28.1802 27.8514 28.9034 28.3389 29.618C28.8938 30.4381 29.4362 31.2665 29.9659 32.103H20.5989L19.1629 29.603L21.2379 28.541L21.3379 28.452C21.4258 28.356 21.494 28.2436 21.5384 28.1213C21.5828 27.9989 21.6026 27.869 21.5968 27.739C21.5909 27.6089 21.5595 27.4813 21.5043 27.3634C21.449 27.2456 21.3711 27.1397 21.2749 27.052C21.0902 26.8917 20.8558 26.8 20.6112 26.7925C20.3667 26.7851 20.1271 26.8622 19.9329 27.011L18.1209 27.845L14.5339 21.589H16.5679C16.8363 21.589 17.0938 21.4824 17.2835 21.2926C17.4733 21.1028 17.5799 20.8454 17.5799 20.577C17.5799 20.3086 17.4733 20.0512 17.2835 19.8614C17.0938 19.6716 16.8363 19.565 16.5679 19.565H12.8109C12.5505 19.5618 12.2989 19.6592 12.1085 19.8369C11.9181 20.0146 11.8036 20.259 11.7889 20.519L11.1039 33.055C11.0953 33.1883 11.1131 33.3219 11.1563 33.4482C11.1996 33.5746 11.2674 33.6911 11.3559 33.791C11.4479 33.8934 11.5595 33.9763 11.684 34.0348C11.8085 34.0934 11.9435 34.1264 12.0809 34.132H35.8249C36.0879 34.1193 36.3355 34.0042 36.5147 33.8114C36.6939 33.6185 36.7905 33.3632 36.7839 33.1C36.6379 30.317 36.3559 27.39 36.0839 24.559M34.6949 32.108H32.3589L30.9189 29.843H34.5039L34.6949 32.108ZM18.2779 32.108H13.2219L13.5779 23.95L18.2779 32.108Z" fill="white"/>
<path d="M28.3499 11.2729C27.1017 10.0718 25.4367 9.40088 23.7044 9.40088C21.9722 9.40088 20.3072 10.0718 19.0589 11.2729C18.44 11.8685 17.9476 12.5829 17.6113 13.3733C17.275 14.1637 17.1018 15.0139 17.1019 15.8729C17.2985 17.5351 17.8624 19.1327 18.7529 20.5499C19.9541 22.7012 21.3424 24.7424 22.9019 26.6499L23.0229 26.7679C23.2326 26.9414 23.5021 27.0255 23.7733 27.0019C24.0444 26.9784 24.2954 26.849 24.4719 26.6419C25.6749 25.1893 26.7755 23.6549 27.7659 22.0499C28.1499 21.4249 28.4059 20.9909 28.6459 20.5619C29.5461 19.1275 30.1146 17.5101 30.3099 15.8279C30.3044 14.9764 30.1283 14.1345 29.792 13.3522C29.4557 12.5698 28.9661 11.8628 28.3519 11.2729M28.2519 15.7939C28.0684 17.1402 27.5882 18.4289 26.8459 19.5669C25.9089 21.2407 24.8525 22.8449 23.6849 24.3669C22.5365 22.8294 21.4874 21.2201 20.5439 19.5489C19.8129 18.4272 19.3371 17.1587 19.1499 15.8329C19.1581 14.6687 19.6252 13.5547 20.4499 12.7329C21.3222 11.913 22.4748 11.4576 23.6719 11.4599H23.7169C24.9045 11.457 26.0472 11.9135 26.9059 12.7339C27.3219 13.1292 27.6549 13.6034 27.8857 14.1287C28.1164 14.6541 28.2403 15.2202 28.2499 15.7939" fill="white"/>
<path d="M23.6469 13.1118V13.2408L23.6399 13.1118C22.9658 13.1321 22.3237 13.4039 21.8399 13.8738C21.3676 14.3515 21.1041 14.9971 21.1073 15.6688C21.1105 16.3406 21.3801 16.9836 21.8569 17.4568C22.3417 17.923 22.9845 18.189 23.6569 18.2018C24.3363 18.1954 24.9858 17.9216 25.4649 17.4398C25.9373 16.9632 26.2012 16.3185 26.1986 15.6474C26.196 14.9763 25.9271 14.3337 25.4509 13.8608C24.975 13.3845 24.3302 13.1153 23.6569 13.1118M24.5359 15.6598C24.5362 15.769 24.5147 15.8771 24.4729 15.9778C24.431 16.0786 24.3695 16.17 24.2919 16.2468C24.1194 16.4095 23.892 16.5013 23.6549 16.5038C23.4295 16.5038 23.2133 16.4143 23.0539 16.2549C22.8944 16.0955 22.8049 15.8793 22.8049 15.6538C22.8049 15.4284 22.8944 15.2122 23.0539 15.0528C23.2133 14.8934 23.4295 14.8038 23.6549 14.8038C23.8928 14.8068 24.121 14.8984 24.2949 15.0608L24.3099 15.0748C24.4586 15.2315 24.5407 15.4398 24.5389 15.6558" fill="white"/>
</svg>
